<?xml version="1.0" standalone="no"?>
<!DOCTYPE svg PUBLIC "-//W3C//DTD SVG 20010904//EN"
 "http://www.w3.org/TR/2001/REC-SVG-20010904/DTD/svg10.dtd">
<svg version="1.0" xmlns="http://www.w3.org/2000/svg"
 width="592.000000pt" height="592.000000pt" viewBox="0 0 592.000000 592.000000"
 preserveAspectRatio="xMidYMid meet">
<metadata>
Created by potrace 1.11, written by Peter Selinger 2001-2013
</metadata>
<g transform="translate(0.000000,592.000000) scale(0.100000,-0.100000)"
fill="#000000" stroke="none">
<path d="M1368 5585 c-2 -1 -34 -5 -72 -9 -140 -13 -316 -69 -394 -125 -17
-11 -33 -21 -37 -21 -10 0 -95 -70 -139 -115 -62 -62 -125 -153 -168 -240 -22
-44 -42 -87 -44 -95 -2 -8 -15 -51 -28 -95 -13 -44 -27 -101 -30 -127 -3 -27
-9 -69 -13 -95 -13 -95 -6 -336 13 -428 3 -11 7 -35 10 -53 3 -19 12 -52 20
-74 8 -22 14 -47 14 -55 0 -19 90 -207 101 -211 5 -2 9 -9 9 -15 1 -24 104
-144 176 -207 122 -105 325 -187 509 -206 53 -5 234 -5 265 0 14 3 43 7 65 10
283 39 529 211 668 466 37 66 91 217 102 280 3 19 8 44 12 54 29 97 22 458
-12 601 -76 320 -255 550 -518 669 -71 32 -162 61 -222 70 -16 2 -49 7 -72 11
-42 7 -210 14 -215 10z m190 -308 c61 -10 166 -51 227 -89 57 -36 147 -146
190 -230 24 -48 44 -89 44 -91 -1 -5 13 -64 21 -87 24 -67 34 -357 17 -480
-24 -168 -97 -329 -195 -426 -35 -35 -68 -64 -73 -64 -4 0 -14 -6 -21 -13 -22
-21 -130 -64 -193 -77 -204 -42 -420 11 -555 137 -50 46 -140 168 -140 189 0
3 -6 20 -14 37 -15 31 -42 120 -52 168 -17 87 -23 319 -10 419 33 247 143 440
306 533 67 39 139 65 200 73 25 3 46 7 48 8 4 4 164 -2 200 -7z"/>
<path d="M3460 5552 l-26 -3 1 -1049 c0 -576 3 -1051 7 -1055 4 -4 36 -6 72
-6 37 1 76 2 89 2 58 0 226 -1 262 -1 22 0 76 0 120 1 102 0 101 0 160 -2 52
-2 194 8 255 17 105 16 111 17 128 27 6 5 12 6 12 3 0 -9 133 40 195 72 168
85 303 224 386 398 21 46 39 87 39 93 0 5 5 22 12 38 13 32 14 36 22 78 3 17
8 41 11 55 3 14 8 41 11 60 8 50 8 367 1 415 -4 22 -9 51 -10 65 -18 129 -79
284 -157 400 -149 220 -408 358 -728 386 -68 7 -816 11 -862 6z m913 -310 c15
-6 38 -14 50 -16 29 -5 111 -38 117 -46 3 -4 19 -14 35 -23 45 -23 126 -104
173 -174 24 -35 40 -63 37 -63 -3 0 1 -10 9 -22 13 -20 44 -113 53 -158 14
-73 18 -127 17 -265 -1 -130 -5 -176 -23 -243 -68 -258 -209 -409 -443 -474
-63 -18 -111 -21 -345 -25 -150 -2 -273 0 -274 4 0 4 -2 349 -2 766 l-2 759
285 -4 c184 -3 295 -9 313 -16z"/>
<path d="M1448 2465 c-2 -2 -32 -5 -68 -9 -235 -22 -421 -108 -579 -267 -39
-40 -73 -80 -76 -91 -4 -10 -10 -18 -14 -18 -12 0 -114 -207 -134 -270 -97
-321 -78 -713 47 -984 60 -130 141 -239 242 -326 81 -70 243 -152 347 -176 74
-17 109 -23 167 -30 100 -11 245 -6 331 11 13 3 36 7 51 10 43 8 169 55 215
80 176 98 297 229 375 404 18 43 28 75 22 80 -5 5 -78 31 -162 59 -136 45
-154 49 -159 34 -35 -104 -124 -229 -208 -292 -47 -35 -139 -71 -225 -87 -82
-15 -250 -2 -325 26 -134 50 -255 155 -317 276 -40 77 -87 225 -92 290 -1 23
-5 46 -7 51 -7 13 -3 237 5 304 8 69 11 84 27 140 16 56 14 51 24 75 4 11 14
35 21 53 37 93 142 212 237 270 101 61 195 85 337 85 169 0 281 -43 378 -147
33 -35 105 -153 107 -176 0 -3 5 -12 10 -21 9 -15 16 -14 70 11 83 38 141 64
203 90 60 26 60 25 11 121 -31 63 -87 140 -133 184 -41 40 -122 105 -129 105
-3 0 -23 10 -44 23 -52 31 -190 79 -263 92 -72 12 -284 27 -292 20z"/>
</g>
</svg>
