<?xml version="1.0" encoding="UTF-8"?>
<svg width="5444px" height="840px" viewBox="0 0 5444 840" version="1.1" xmlns="http://www.w3.org/2000/svg" xmlns:xlink="http://www.w3.org/1999/xlink">
    <!-- Generator: Sketch 55.1 (78136) - https://sketchapp.com -->
    <title>LabLogo</title>
    <desc>Created with Sketch.</desc>
    <g id="Page-1" stroke="none" stroke-width="1" fill="none" fill-rule="evenodd">
        <g id="LabLogo" fill="#FFFFFF">
            <path d="M886.68,0 C767.59,0 685.52,61.38 650.12,174.46 L646.9,174.46 C614.71,67.85 531,0 399.08,0 C283.22,0 207.59,61.38 173.79,174.46 L170.57,174.46 L170.57,16.15 L0,16.15 L0,823.85 L175.4,823.85 L175.4,339.23 C175.4,206.77 223.68,132.46 333.11,132.46 C437.71,132.46 489.2,200.31 489.2,350.54 L489.2,823.85 L664.6,823.85 L664.6,339.23 C664.6,206.77 711.27,132.46 820.7,132.46 C926.91,132.46 976.79,200.31 976.79,350.54 L976.79,823.85 L1152.19,823.85 L1152.19,298.85 C1152.19,121.15 1065.29,0 886.68,0 Z" id="Path"></path>
            <path d="M3447.55,0 L1684.55,0 C1439.95,0 1290.29,201.92 1290.29,420 C1290.29,638.08 1439.9,840 1684.5,840 L3447.55,840 C3692.15,840 3841.8,638.07 3841.8,420 C3841.8,201.93 3692.15,0 3447.55,0 Z M3447.55,709.16 L1684.55,709.16 C1550.98,709.16 1456.85,591.24 1456.85,420 C1456.85,247.16 1550.98,130.85 1684.55,130.85 L3447.55,130.85 C3582.72,130.85 3676.85,247.16 3676.85,420 C3676.85,591.24 3582.72,709.16 3447.55,709.16 Z" id="Shape" fill-rule="nonzero"></path>
            <polygon id="Path" points="4266.14 772.16 4061.76 16.15 3884.75 16.15 4105.22 823.86 4428.67 823.86 4647.52 16.15 4472.11 16.15"></polygon>
            <path d="M5067.84,0 C4828.07,0 4691.28,197.08 4691.28,420 C4691.28,642.92 4831.28,840 5071.06,840 C5267.38,840 5392.9,733.38 5426.69,573.46 L5251.29,573.46 C5231.98,638.07 5186.92,709.15 5082.29,709.15 C4959.99,709.15 4874.7,623.53 4866.66,476.53 L5441.14,476.53 C5465.31,195.46 5307.61,0 5067.84,0 Z M4868.3,345.7 C4879.56,214.85 4950.36,130.85 5067.84,130.85 C5185.32,130.85 5254.51,214.85 5265.77,345.7 L4868.3,345.7 Z" id="Shape" fill-rule="nonzero"></path>
        </g>
    </g>
</svg>