<svg width="205" height="145" viewBox="0 0 205 145" fill="none" xmlns="http://www.w3.org/2000/svg">
<path fill-rule="evenodd" clip-rule="evenodd" d="M105.831 88.7313C119.357 89.0777 132.524 87.1152 142.412 77.0429C166.505 52.5027 162.599 11.1596 134.031 -7.6794C118.735 -17.7664 100.858 -21.2322 83.0224 -17.4412C57.1078 -11.9328 39.5035 24.1814 49.1771 49.4863C58.3677 73.5281 80.6997 88.9993 105.831 88.7313ZM102.017 92.8328C73.6444 92.4161 56.3357 75.7422 45.6785 51.4488C33.4885 23.6617 53.1021 -15.982 82.3375 -21.6865C100.801 -25.2896 119.4 -21.363 135.837 -11.3446C166.545 7.37676 171.09 55.2823 144.845 80.1983C135.023 89.5222 120.043 93.9407 102.017 92.8328Z" fill="#05D6FF"/>
<path fill-rule="evenodd" clip-rule="evenodd" d="M15 94.8532C24.64 88.5683 34.28 82.285 43.92 76C44.6139 77.2146 45.3061 78.431 46 79.6456C36.2696 85.7632 26.536 91.8824 16.8057 98C16.2038 96.9528 15.6019 95.9022 15 94.8532Z" fill="#05D6FF"/>
<path fill-rule="evenodd" clip-rule="evenodd" d="M155.803 96C162.87 104.518 169.934 113.034 177 121.551C176.186 122.367 175.373 123.184 174.559 124C167.372 115.633 160.187 107.266 153 98.8978C153.935 97.9313 154.87 96.9665 155.803 96Z" fill="#05D6FF"/>
<path fill-rule="evenodd" clip-rule="evenodd" d="M99 111.458C97.9226 122.732 97.2133 134.05 93.5613 145C92.7081 144.892 91.8549 144.786 91 144.678C92.4504 133.451 93.9026 122.227 95.353 111C96.5692 111.152 97.7838 111.306 99 111.458Z" fill="#05D6FF"/>
<path fill-rule="evenodd" clip-rule="evenodd" d="M27.8502 23C18.5668 22.2514 9.28341 21.5045 0 20.7576C0.0789938 19.5045 0.156342 18.2531 0.235336 17L28 19.2605L27.8502 23Z" fill="#05D6FF"/>
<path fill-rule="evenodd" clip-rule="evenodd" d="M204.566 59C196.044 57.5717 187.521 56.1416 179 54.7133C179.136 53.4767 179.271 52.2401 179.407 51C187.936 52.2939 196.467 53.586 205 54.8799C204.856 56.2545 204.71 57.6272 204.566 59Z" fill="#05D6FF"/>
<path fill-rule="evenodd" clip-rule="evenodd" d="M106.476 88.9634C81.2889 89.2296 58.907 73.8599 49.6958 49.9757C40.0007 24.8367 57.6443 -11.0407 83.6167 -16.513C101.492 -20.2791 119.409 -16.836 134.739 -6.81514C163.371 11.9003 167.286 52.9724 143.139 77.3517C133.229 87.3579 120.032 89.3076 106.476 88.9634Z" />
</svg>
