<svg width="277" height="158" viewBox="0 0 277 158" fill="none" xmlns="http://www.w3.org/2000/svg">
<path fill-rule="evenodd" clip-rule="evenodd" d="M141.211 18.4242C133.387 15.3949 126.22 11.7153 118.606 9.84157C97.4039 4.62307 61.5708 16.8351 56.9041 44.2225C56.4799 46.7175 52.8584 50.161 50.3072 50.5714C13.0625 56.5467 0.705422 86.8357 6.21287 115.518C10.4784 137.735 20.2939 153.695 50.3785 152.789C76.3152 152.009 102.292 152.75 128.25 152.659C170.58 152.506 212.918 152.591 255.236 151.796C270.91 151.502 281.24 139.857 282.812 123.652C284.47 106.508 277.406 94.9189 261.682 90.9063C255.87 89.4236 255.849 87.2209 256.703 82.1863C260.236 61.3181 247.827 44.6774 226.84 39.8963C222.696 38.9517 219.013 34.6991 215.764 31.3408C209.799 25.1777 205.326 17.0422 198.445 12.3927C178.205 -1.28838 161.243 1.20473 141.211 18.4242ZM147.85 157.727C113.251 157.727 78.6543 157.645 44.0534 157.765C30.1248 157.816 19.214 151.976 11.5468 140.724C-4.39899 117.322 -4.09045 86.706 14.1019 65.2416C20.7104 57.4429 31.4939 52.7219 41.1146 48.1673C47.1273 45.3219 52.3165 43.4792 54.7791 36.327C64.259 8.7518 104.849 -3.40211 132.711 8.57759C136.351 10.1435 142.416 10.0603 145.602 8.00077C164.388 -4.13765 192.62 -2.64333 207.46 13.7109C217.559 24.837 226.135 35.6824 241.666 41.3461C255.874 46.5298 262.741 61.0122 262.571 77.5194C262.537 80.7655 265.123 85.3607 267.892 87.0912C281.88 95.8229 290.174 106.854 287.501 124.457C284.962 141.202 276.074 152.4 260.022 156.885C253.786 158.629 246.784 157.802 240.129 157.818C209.371 157.891 178.612 157.849 147.85 157.849V157.727Z" fill="#3EAC5B"/>
</svg>
