<svg width="179" height="122" viewBox="0 0 179 122" fill="none" xmlns="http://www.w3.org/2000/svg">
<path fill-rule="evenodd" clip-rule="evenodd" d="M155.277 5.22411C155.259 4.69414 155.242 4.16417 155.225 3.63313H144.369C144.371 4.16417 144.372 4.69414 144.374 5.22411H155.277ZM89.485 119.119C116.064 119.119 142.642 119.045 169.221 119.185C174.275 119.212 176.604 117.956 176.563 112.277C176.33 79.7664 176.381 47.2537 176.525 14.7421C176.546 10.1333 175.117 8.50049 170.357 8.51121C116.661 8.64102 62.9658 8.64853 9.27069 8.5037C4.24381 8.48868 2.84068 10.2009 2.86441 15.021C3.02942 47.5327 3.04668 80.0453 2.85578 112.557C2.82558 117.803 4.70433 119.244 9.74954 119.208C36.327 119.017 62.9065 119.119 89.485 119.119V119.119ZM178.711 121.999H154.177C105.849 121.999 57.5205 122.003 9.19196 121.996C0.402201 121.993 0.111006 121.695 0.109928 112.957C0.102378 79.539 0.204836 46.1187 0.000999683 12.7006C-0.0302767 7.61649 1.36422 5.89033 6.61974 5.84313C11.9917 5.79485 17.3411 4.26716 22.7206 3.54623C24.4646 3.31236 26.3066 3.38316 28.0506 3.65137C32.5252 4.34011 36.9665 5.8796 41.4282 5.91071C72.1482 6.11455 102.87 6.02336 133.593 6.01156C136.921 6.00941 140.592 6.79149 141.582 1.88337C141.744 1.07769 143.84 0.244113 145.099 0.150778C148.314 -0.0906052 151.562 0.000584004 154.79 0.130394C155.799 0.171161 157.52 0.565957 157.671 1.12811C159.622 8.43612 165.556 5.77983 170.071 5.93324C178.978 6.23685 178.994 6.03194 178.996 14.8258C179.001 48.6033 179.005 82.3787 178.988 116.155C178.988 118.068 178.81 119.979 178.711 121.999V121.999Z" fill="#33A852"/>
<path fill-rule="evenodd" clip-rule="evenodd" d="M143.582 26.1592V26.1796C147.319 26.1796 151.07 25.986 154.791 26.2334C158.488 26.4819 159.977 25.0749 159.876 21.3682C159.78 17.8787 159.656 14.9497 154.89 15.0669C147.419 15.2509 139.937 15.2444 132.467 15.0616C128.247 14.9583 126.845 16.8095 126.873 20.8411C126.901 24.7716 128.571 26.3184 132.37 26.1871C136.104 26.0581 139.845 26.1592 143.582 26.1592M86.2297 29.5561C84.3511 29.5561 81.3028 29.413 78.2707 29.583C69.0829 30.0929 60.9187 33.0929 55.7534 41.1238C47.7031 53.6391 48.2821 76.6389 57.6213 88.0732C68.7403 101.686 83.0869 109.169 101.303 107.426C111.557 106.447 119.742 101.613 125.865 93.6795C136.829 79.4754 132.37 56.5122 122.979 43.8839C113.956 31.7505 101.517 28.6558 86.2297 29.5561M89.2758 119.91C62.8059 119.91 36.335 119.808 9.86726 119.999C4.84159 120.034 2.97053 118.591 3.0006 113.33C3.19071 80.7318 3.1746 48.1328 3.01027 15.5349C2.98556 10.7019 4.38295 8.98516 9.38929 9.00022C62.8661 9.14651 116.342 9.1379 169.819 9.00883C174.559 8.99699 175.981 10.6341 175.961 15.2552C175.817 47.8531 175.767 80.4532 175.999 113.049C176.04 118.743 173.721 120.002 168.685 119.975C142.217 119.835 115.746 119.91 89.2758 119.91" fill="white"/>
<path fill-rule="evenodd" clip-rule="evenodd" d="M85.3409 31.9453C83.1412 31.9453 79.9146 31.7587 76.7147 31.9807C68.3351 32.5628 60.529 34.9866 56.4458 42.925C42.6356 69.7803 60.0155 99.5387 88.6694 103.78C101.911 105.739 113.779 102.585 122.274 91.7344C132.524 78.6428 128.263 55.8043 118.925 44.1964C110.373 33.563 99.0707 31.048 85.3409 31.9453M85.0247 29.1451C100.282 28.2479 112.697 31.3321 121.701 43.4235C131.075 56.0091 135.523 78.8958 124.581 93.0519C118.47 100.958 110.301 105.775 100.068 106.751C81.887 108.488 67.5697 101.03 56.4716 87.4634C47.1518 76.0678 46.574 53.1457 54.6085 40.6737C59.7636 32.67 67.9106 29.6801 77.0813 29.1709C80.1065 29.0026 83.1498 29.1451 85.0247 29.1451" fill="#33A752"/>
<path fill-rule="evenodd" clip-rule="evenodd" d="M143.541 23.3423C146.74 23.3423 149.977 23.6158 153.125 23.2134C154.463 23.0423 155.613 21.4541 156.85 20.51C155.669 19.5438 154.525 17.796 153.303 17.7411C146.914 17.4571 140.498 17.4264 134.113 17.7359C132.746 17.8034 131.468 19.6451 130.148 20.6695C131.412 21.565 132.6 23.0698 133.955 23.2345C137.107 23.6189 140.341 23.3581 143.541 23.3423V23.3423ZM143.705 25.8999C139.969 25.8999 136.228 25.8007 132.497 25.9274C128.698 26.0562 127.027 24.5377 127 20.679C126.971 16.72 128.373 14.9036 132.593 15.0039C140.062 15.1835 147.543 15.1908 155.011 15.0103C159.775 14.8952 159.9 17.7707 159.995 21.1964C160.096 24.8355 158.608 26.2167 154.911 25.9728C151.192 25.7299 147.442 25.9189 143.705 25.9189V25.8999Z" fill="#33A852"/>
<path fill-rule="evenodd" clip-rule="evenodd" d="M97.044 41.1024C87.0643 37.8199 69.9571 42.5856 65.1564 49.2995C60.4925 55.8213 59.1433 63.7811 62.6789 68.7291C62.1412 43.9685 79.9595 43.1411 97.044 41.1024M85.9015 32.1685C99.7036 31.2657 111.065 33.7963 119.662 44.496C129.049 56.1762 133.333 79.1559 123.029 92.3301C114.49 103.248 102.559 106.422 89.2486 104.45C60.4429 100.183 42.9715 70.2393 56.8544 43.2166C60.9591 35.2288 68.8062 32.7899 77.23 32.2041C80.4466 31.9809 83.6902 32.1685 85.9015 32.1685" fill="white"/>
<path fill-rule="evenodd" clip-rule="evenodd" d="M143.04 24.9203C139.925 24.9274 136.776 25.1474 133.707 24.8241C132.387 24.6843 131.231 23.4159 130 22.6596C131.285 21.7956 132.529 20.2422 133.861 20.1861C140.078 19.9251 146.326 19.95 152.546 20.1897C153.736 20.236 154.85 21.7101 156 22.526C154.795 23.3215 153.676 24.6611 152.373 24.8054C149.308 25.1448 146.156 24.9141 143.04 24.9203" fill="white"/>
<path fill-rule="evenodd" clip-rule="evenodd" d="M97 41.0374C80.0876 43.0271 62.4487 43.8346 62.981 68C59.4809 63.1709 60.8165 55.4025 65.4335 49.0374C70.1859 42.485 87.1207 37.8338 97 41.0374" fill="#33A752"/>
</svg>
