<svg width="68" height="74" viewBox="0 0 68 74" fill="none" xmlns="http://www.w3.org/2000/svg">
<path d="M14.88 4.2C17.4133 4.2 19.6133 4.74667 21.48 5.84C23.3733 6.93333 24.8267 8.50667 25.84 10.56C26.8533 12.6133 27.36 15.0267 27.36 17.8C27.36 20.5733 26.8533 22.9867 25.84 25.04C24.8267 27.0933 23.3733 28.6667 21.48 29.76C19.6133 30.8533 17.4133 31.4 14.88 31.4C12.3467 31.4 10.1467 30.8533 8.28 29.76C6.41333 28.6667 4.97333 27.0933 3.96 25.04C2.94667 22.9867 2.44 20.5733 2.44 17.8C2.44 15.0267 2.94667 12.6133 3.96 10.56C4.97333 8.50667 6.41333 6.93333 8.28 5.84C10.1467 4.74667 12.3467 4.2 14.88 4.2ZM14.88 7.92C12.4 7.92 10.4533 8.78667 9.04 10.52C7.62667 12.2533 6.92 14.68 6.92 17.8C6.92 20.92 7.62667 23.3467 9.04 25.08C10.4533 26.8133 12.4 27.68 14.88 27.68C17.3867 27.68 19.3467 26.8133 20.76 25.08C22.1733 23.3467 22.88 20.92 22.88 17.8C22.88 14.68 22.1733 12.2533 20.76 10.52C19.3467 8.78667 17.3867 7.92 14.88 7.92Z" fill="black"/>
<path d="M49.24 4.6C53.4 4.6 56.6267 5.74667 58.92 8.04C61.2133 10.3333 62.36 13.5867 62.36 17.8C62.36 22.0133 61.2133 25.2667 58.92 27.56C56.6267 29.8533 53.4 31 49.24 31H39.92V4.6H49.24ZM49.24 27.36C52.0133 27.36 54.1467 26.5333 55.64 24.88C57.1333 23.2 57.88 20.84 57.88 17.8C57.88 14.76 57.1333 12.4133 55.64 10.76C54.1467 9.08 52.0133 8.24 49.24 8.24H44.2V27.36H49.24Z" fill="black"/>
<path d="M26.8 63C26 65.3733 24.6267 67.2 22.68 68.48C20.76 69.76 18.4933 70.4 15.88 70.4C13.3467 70.4 11.1467 69.8533 9.28 68.76C7.41333 67.6667 5.97333 66.0933 4.96 64.04C3.94667 61.9867 3.44 59.5733 3.44 56.8C3.44 54.0267 3.94667 51.6133 4.96 49.56C5.97333 47.5067 7.41333 45.9333 9.28 44.84C11.1467 43.7467 13.3333 43.2 15.84 43.2C18.48 43.2 20.6933 43.7467 22.48 44.84C24.2933 45.9333 25.6 47.5467 26.4 49.68L22.36 51.48C21.8267 49.9067 21.0533 48.76 20.04 48.04C19.0267 47.2933 17.7067 46.92 16.08 46.92C13.6 46.92 11.6133 47.8 10.12 49.56C8.65333 51.2933 7.92 53.7067 7.92 56.8C7.92 59.92 8.62667 62.3467 10.04 64.08C11.4533 65.8133 13.4133 66.68 15.92 66.68C17.6267 66.68 19.0533 66.2533 20.2 65.4C21.3733 64.5467 22.2133 63.2933 22.72 61.64L26.8 63Z" fill="black"/>
</svg>
