<svg width="167" height="207" viewBox="0 0 167 207" fill="none" xmlns="http://www.w3.org/2000/svg">
<path fill-rule="evenodd" clip-rule="evenodd" d="M67 0.940588C66.4313 3.03032 66.1654 5.26508 65.25 7.18493C46.8624 45.7836 38.0345 87.6239 24.8036 127.97C21.0817 139.322 17.1899 150.621 13.5379 161.998C9.82005 173.579 6.31191 185.23 2.67907 196.837C2.42692 197.648 1.90755 198.372 0 199C0.167185 197.064 -0.0178148 195.014 0.554999 193.207C6.80524 173.507 13.394 153.915 19.4606 134.16C28.2309 105.597 36.1681 76.765 45.4016 48.3581C50.7447 31.9247 57.9336 16.1005 64.2922 0C65.1952 0.314911 66.0983 0.627059 67 0.940588Z" fill="#E8CF00"/>
<path fill-rule="evenodd" clip-rule="evenodd" d="M133.147 0C151.955 67.6851 157.823 137.302 167 206.409C166.39 206.608 165.781 206.803 165.171 207C164.25 204.037 162.862 201.133 162.483 198.104C159.697 175.803 157.549 153.415 154.362 131.174C149.646 98.2514 144.366 65.4091 139.038 32.5779C137.612 23.7853 135.052 15.1799 133.211 6.44784C132.777 4.3853 133.147 2.15203 133.147 0Z" fill="#E8CF00"/>
<path fill-rule="evenodd" clip-rule="evenodd" d="M97 156V133.033C97.3333 133.022 97.6667 133.011 98 133V155.96C97.6667 155.973 97.3333 155.986 97 156Z" fill="#E8CF00"/>
<path fill-rule="evenodd" clip-rule="evenodd" d="M98 169V192.936C97.6673 192.957 97.3327 192.98 97 193V169.098C97.3327 169.065 97.6673 169.033 98 169Z" fill="#E8CF00"/>
<path fill-rule="evenodd" clip-rule="evenodd" d="M97 54V34.0942C97.333 34.0632 97.666 34.0309 98 34V53.922C97.666 53.9489 97.333 53.9744 97 54Z" fill="#E8CF00"/>
<path fill-rule="evenodd" clip-rule="evenodd" d="M97 118.985V99.0163C97.3339 99.0109 97.6661 99.0054 98 99V119C97.6661 118.996 97.3339 118.99 97 118.985Z" fill="#E8CF00"/>
<path fill-rule="evenodd" clip-rule="evenodd" d="M97 85V66.101L98 66V84.8852C97.6667 84.9225 97.3333 84.9626 97 85Z" fill="#E8CF00"/>
<path fill-rule="evenodd" clip-rule="evenodd" d="M99.9925 3V19.9875C99.6645 19.9917 99.3365 19.9958 99.0075 20V3.01938C99.3365 3.01246 99.6645 3.00554 99.9925 3Z" fill="#E8CF00"/>
</svg>
