<svg width="250" height="250" viewBox="0 0 353 350" fill="none" xmlns="http://www.w3.org/2000/svg">
<path fill-rule="evenodd" clip-rule="evenodd" d="M218.842 200.214L219.826 203.518C195.897 234.39 165.466 256.539 127.835 269.118C168.899 262.565 197.823 236.976 225.476 206.069C226.357 216.125 227.035 223.852 227.713 231.58C228.816 231.499 229.916 231.421 231.019 231.339C231.019 221.321 231.184 211.296 230.854 201.289C230.799 199.651 228.613 196.748 227.329 196.702C216.928 196.326 206.507 196.49 196.091 196.49C196.079 197.731 196.064 198.971 196.051 200.214H218.842ZM-74.4175 103.776C-75.594 104.119 -76.7705 104.461 -77.947 104.801C-75.5497 111.954 -73.4438 119.231 -70.4951 126.147C-69.9375 127.457 -64.9569 128.615 -63.8459 127.677C-55.7033 120.801 -48.0297 113.372 -40.2081 106.12C-40.8819 105.217 -41.5578 104.317 -42.2359 103.417C-48.0719 107.622 -53.9079 111.823 -62.2301 117.813C-50.6847 75.8461 -33.6877 41.1288 1.61575 18.0016C-39.2239 37.2091 -54.5057 75.0516 -67.6796 115.66C-70.4761 110.73 -72.4468 107.254 -74.4175 103.776V103.776ZM352.23 5.76706C351.987 4.10409 351.744 2.44113 351.501 0.780273C341.397 1.68888 330.508 0.473882 321.329 3.87377C283.342 17.9403 258.999 46.5319 242.725 83.4172C239.994 78.9396 237.81 75.3623 235.626 71.787C234.641 72.2286 233.659 72.6723 232.675 73.114C235.355 80.5181 237.852 88.0025 240.881 95.265C241.466 96.6723 244.917 98.462 245.713 97.9591C253.856 92.8244 261.726 87.2523 269.67 81.8028C268.929 80.7125 268.185 79.6264 267.446 78.536C261.669 81.9486 255.894 85.3633 247.323 90.4304C251.691 71.6327 260.685 58.6565 270.657 46.7791C291.671 21.7543 316.498 3.04546 352.23 5.76706V5.76706ZM193.814 349.62C262.77 341.817 302.754 296.577 334.424 238.365C338.551 247.932 341.893 255.679 345.234 263.425C346.593 262.857 347.955 262.286 349.315 261.716C344.899 251.446 340.547 241.143 335.951 230.954C335.542 230.048 333.203 229.097 332.301 229.471C322.209 233.644 312.227 238.075 302.215 242.436C302.785 243.7 303.358 244.961 303.928 246.221C310.751 243.575 317.573 240.93 324.395 238.282C325.035 239.349 325.675 240.421 326.318 241.492C297.638 295.987 257.785 337.073 193.814 349.62V349.62ZM78.1053 191.527C78.8319 192.647 79.5585 193.769 80.2829 194.891C57.4309 265.217 6.89206 295.546 -66.6256 293.572C-50.4059 298.293 -34.3679 299.053 -18.2939 294.675C33.9769 280.435 70.7843 249.669 85.5487 193.598C91.0679 202.65 95.2543 209.517 99.4428 216.385C100.507 215.747 101.572 215.106 102.636 214.466C98.1079 205.515 93.7525 196.465 88.9029 187.69C87.9059 185.885 85.1579 184.283 83.0373 184.017C77.6342 183.337 60.8802 196.233 58.0942 203.996C65.6052 199.313 71.8552 195.419 78.1053 191.527V191.527Z" fill="#05D6FF"/>
</svg>
