<?xml version="1.0" encoding="UTF-8"?>
<svg width="288px" height="158px" viewBox="0 0 288 158" version="1.1" xmlns="http://www.w3.org/2000/svg" xmlns:xlink="http://www.w3.org/1999/xlink">
    <!-- Generator: Sketch 55.1 (78136) - https://sketchapp.com -->
    <title>Group 7</title>
    <desc>Created with Sketch.</desc>
    <g id="Page-1" stroke="none" stroke-width="1" fill="none" fill-rule="evenodd">
        <g id="Desktop-HD" transform="translate(-1075.000000, -5656.000000)">
            <g id="Group-7" transform="translate(1075.000000, 5656.000000)">
                <path d="M141.210884,18.4242138 C133.387455,15.3949313 126.219675,11.7152725 118.606439,9.84156931 C97.4039256,4.62307373 61.5708097,16.8350502 56.9041355,44.2224738 C56.4798924,46.7175186 52.8583989,50.1610289 50.3071551,50.5713854 C13.0624667,56.5467177 0.705421886,86.8356713 6.21286882,115.518041 C10.4784405,137.73536 20.2938834,153.694742 50.3785051,152.788861 C76.3151862,152.008797 102.292363,152.750148 128.250257,152.659173 C170.580077,152.506257 212.917611,152.591426 255.235862,151.795876 C270.909716,151.501658 281.240036,139.856825 282.811664,123.651616 C284.470069,106.507619 277.406421,94.9189196 261.682429,90.9063301 C255.870298,89.423627 255.849086,87.2208644 256.703357,82.1862549 C260.236145,61.3180795 247.827034,44.6773501 226.840499,39.89631 C222.696415,38.9517159 219.013213,34.6991065 215.763897,31.3407646 C209.799424,25.1776748 205.325588,17.0421641 198.445136,12.3927478 C178.204883,-1.28838232 161.242872,1.20472685 141.210884,18.4242138 L141.210884,18.4242138 Z M147.850288,157.726688 C113.251334,157.726688 78.6543084,157.645391 44.053426,157.765401 C30.1247533,157.815728 19.2139918,151.975891 11.5467618,140.723994 C-4.39899409,117.322061 -4.09045365,86.7059831 14.1018623,65.2416294 C20.710413,57.4429207 31.4939015,52.7218856 41.1145782,48.1673158 C47.1272601,45.3219195 52.3165247,43.4791866 54.7790632,36.3269829 C64.2589683,8.75180188 104.849392,-3.40210531 132.710594,8.57759394 C136.351372,10.1435297 142.41612,10.0602971 145.6018,8.0007721 C164.388056,-4.13764994 192.619507,-2.64333295 207.460302,13.7109212 C217.559217,24.8370015 226.134713,35.6824135 241.665867,41.3461072 C255.874155,46.5297612 262.741108,61.0122478 262.571411,77.5194178 C262.5367,80.7654924 265.122654,85.3607107 267.891805,87.0911762 C281.880257,95.8228652 290.17421,106.854099 287.501479,124.456843 C284.961805,141.202098 276.073912,152.399797 260.022095,156.884683 C253.785722,158.628698 246.783782,157.802179 240.12895,157.817664 C209.371325,157.891218 178.611771,157.848634 147.850288,157.848634 L147.850288,157.726688 Z" id="Fill-3" fill="#3EAC5B"></path>
                <path d="M141.205588,18.8011299 C161.231515,1.60758449 178.188394,-0.881768751 198.422522,12.7787504 C205.300892,17.4211623 209.773375,25.5444167 215.736043,31.6982216 C218.984376,35.0515042 222.666463,39.2977069 226.809293,40.240878 C247.789479,45.0147153 260.194835,61.6303751 256.663116,82.4671122 C255.809103,87.4941369 255.830309,89.693581 261.640681,91.1740503 C277.359915,95.1805948 284.421426,106.751835 282.763523,123.870004 C281.19237,140.0508 270.865176,151.67809 255.196064,151.971865 C212.890619,152.766216 170.565895,152.681176 128.248882,152.833861 C102.298844,152.9247 76.3295266,152.184465 50.4006935,152.963354 C20.3251747,153.867871 10.5127018,137.932531 6.24842083,115.748683 C0.74264034,87.1095241 13.0959461,56.8662014 50.3293651,50.8998711 C52.8798369,50.4901328 56.5002346,47.0518103 56.9243493,44.5605243 C61.5896115,17.2143605 97.411885,5.02078157 118.607983,10.2314154 C126.218915,12.1022958 133.384526,15.7764111 141.205588,18.8011299" id="Fill-5" fill="#FFFFFF"></path>
            </g>
        </g>
    </g>
</svg>