<svg width="269" height="194" viewBox="0 0 269 194" fill="none" xmlns="http://www.w3.org/2000/svg">
<path fill-rule="evenodd" clip-rule="evenodd" d="M66.8292 167.803C74.2186 156.804 72.7595 143.149 63.2878 137.469C60.5241 135.811 55.3459 135.183 52.975 136.715C50.6003 138.253 48.997 143.26 49.4194 146.431C50.8128 156.874 58.443 162.714 66.8292 167.803ZM132.08 123.423C130.982 105.581 130.327 88.9244 128.686 72.3645C128.256 68.0257 125.366 63.513 122.536 59.9255C117.726 53.8264 110.329 54.3677 105.562 60.5144C100.996 66.4046 100.532 73.0848 102.003 80.091C105.61 97.2734 117.118 109.536 128.172 122.069C128.524 122.466 129.302 122.485 132.08 123.423ZM204.133 91.9385C205.173 91.4102 206.213 90.8831 207.254 90.3535C207.254 80.7765 207.571 71.1841 207.185 61.6226C206.468 43.8268 200.588 27.6057 190.921 12.7673C189.331 10.3292 187.035 8.07031 184.565 6.53428C173.378 -0.430686 168.018 2.58854 165.669 15.4592C161.257 39.6478 171.45 58.6124 186.412 75.8205C191.615 81.8061 198.186 86.5998 204.133 91.9385ZM0 184.121C9.80146 186.358 18.8792 189.183 28.1655 190.376C42.3352 192.194 53.4464 185.626 62.8074 175.454C65.3856 172.651 64.5756 171.09 62.1274 168.623C57.0702 163.525 51.6937 158.414 48.0543 152.344C45.0563 147.343 43.7763 140.862 48.7356 135.525C52.138 131.865 56.4315 130.687 61.0611 132.666C67.8723 135.576 73.6971 139.981 74.0383 147.986C74.2804 153.668 73.3493 159.537 72.0281 165.106C71.079 169.102 71.6366 170.846 75.6468 172.191C103.767 181.625 131.186 161.57 130.457 131.697C130.402 129.417 128.179 126.922 126.448 124.989C115.687 112.973 105.025 100.872 100.138 85.0586C97.6824 77.1207 96.9071 69.0205 101.308 61.3043C107.403 50.6178 118.626 49.2879 125.791 59.1639C129.164 63.8158 131.772 69.8955 132.311 75.5589C133.733 90.4901 134.077 105.544 134.327 120.556C134.414 125.881 136.416 128.964 141.058 130.985C151.142 135.373 161.78 137.406 172.515 135.728C184.53 133.852 191.16 124.315 197.572 115.05C198.297 114.001 198.846 112.801 199.321 111.611C201.147 107.033 204.851 102.088 204.121 97.937C203.464 94.2078 198.094 91.1228 194.486 88.1332C183.727 79.216 175.876 68.1146 168.991 56.0751C160.668 41.5266 160.391 26.1753 163.601 10.4633C165.591 0.731645 170.692 -1.75667 180.127 1.12725C188.122 3.57175 192.959 9.29062 196.865 16.2311C209.124 38.0035 212.775 61.4576 209.84 85.9503C209.027 92.7375 211.523 95.2374 217.466 96.6149C231.929 99.9666 245.096 98.8287 256.137 87.4709C259.645 83.8628 263.989 81.0678 269 78.7856C268.606 79.7895 268.503 81.1528 267.774 81.7417C261.273 87.0005 255.007 92.6601 248 97.1574C237.557 103.859 226.011 101.881 214.96 98.8738C209.801 97.4705 207.874 98.4499 206.111 103.345C204.02 109.151 201.426 114.997 197.917 120.037C183.851 140.232 164.863 144.759 140.794 134.219C138.874 133.378 136.96 132.518 134.146 131.267C133.479 134.715 133.194 137.648 132.337 140.402C127.28 156.676 120.254 172.253 102.106 176.526C93.4417 178.564 83.5333 176.186 74.35 174.76C70.211 174.117 67.7461 174.285 65.0018 177.602C48.5218 197.506 20.4825 197.204 4.69661 187.742C2.998 186.724 1.5312 185.315 0 184.121Z" fill="#FF694B"/>
</svg>
