<svg width="218" height="184" viewBox="0 0 218 184" fill="none" xmlns="http://www.w3.org/2000/svg">
<path fill-rule="evenodd" clip-rule="evenodd" d="M131.481 49.2614C132.132 50.0868 132.784 50.914 133.435 51.7411C110.641 95.4825 78.3735 127.998 27.3193 138.294C82.5257 131.876 114.436 95.9653 139.709 49.6462C142.967 56.7041 145.867 62.9786 148.766 69.2532C149.788 68.8211 150.81 68.3872 151.833 67.9534C148.477 59.9401 145.2 51.8897 141.654 43.9574C141.225 42.9986 139.01 41.8676 138.188 42.2018C130.121 45.4885 122.173 49.0689 114.19 52.5632C114.661 53.5659 115.129 54.5687 115.603 55.568C120.894 53.4664 126.187 51.363 131.481 49.2614ZM0 184H218V0H0V184Z" fill="white"/>
<path fill-rule="evenodd" clip-rule="evenodd" d="M131.569 49.1082C126.254 51.2065 120.94 53.3065 115.628 55.4049C115.153 54.4071 114.683 53.406 114.21 52.4048C122.224 48.916 130.203 45.3413 138.302 42.0598C139.127 41.7261 141.351 42.8553 141.782 43.8126C145.341 51.7323 148.631 59.7701 152 67.7707C150.974 68.2038 149.947 68.637 148.921 69.0685C146.011 62.8038 143.1 56.5391 139.829 49.4924C114.458 95.7384 82.4221 131.592 27 138C78.2537 127.721 110.647 95.2563 133.53 51.584C132.877 50.7582 132.222 49.9323 131.569 49.1082Z" fill="#EAD31A"/>
</svg>
