<svg width="342" height="292" viewBox="0 0 342 292" fill="none" xmlns="http://www.w3.org/2000/svg">
<path fill-rule="evenodd" clip-rule="evenodd" d="M100.616 252.57C111.742 236.014 109.545 215.462 95.2845 206.912C91.1237 204.416 83.3274 203.472 79.7579 205.778C76.1826 208.092 73.7687 215.629 74.4047 220.402C76.5026 236.12 87.9905 244.91 100.616 252.57ZM198.856 185.771C197.204 158.916 196.217 133.845 193.747 108.92C193.099 102.389 188.748 95.5968 184.487 90.1971C177.245 81.0171 166.108 81.8317 158.932 91.0835C152.057 99.9492 151.359 110.004 153.573 120.549C159.004 146.411 176.33 164.868 192.973 183.733C193.503 184.33 194.674 184.359 198.856 185.771ZM307.338 138.382C308.903 137.586 310.47 136.793 312.036 135.996C312.036 121.581 312.513 107.143 311.934 92.7515C310.854 65.9661 302.001 41.5509 287.445 19.2168C285.053 15.5471 281.596 12.1471 277.877 9.8351C261.034 -0.648249 252.964 3.89615 249.428 23.2685C242.785 59.6761 258.131 88.2207 280.657 114.122C288.491 123.131 298.385 130.346 307.338 138.382ZM0 277.13C14.7568 280.497 28.424 284.749 42.4053 286.545C63.7389 289.282 80.4676 279.396 94.5613 264.085C98.443 259.866 97.2234 257.518 93.5376 253.803C85.9236 246.13 77.8288 238.438 72.3495 229.301C67.8357 221.773 65.9085 212.019 73.3751 203.986C78.4977 198.477 84.9619 196.704 91.9322 199.684C102.187 204.063 110.957 210.693 111.47 222.741C111.835 231.295 110.433 240.127 108.444 248.51C107.015 254.525 107.854 257.149 113.892 259.174C156.229 273.373 197.51 243.188 196.413 198.225C196.329 194.792 192.983 191.037 190.377 188.128C174.176 170.041 158.124 151.829 150.766 128.026C147.068 116.079 145.901 103.887 152.526 92.2724C161.703 76.1876 178.6 74.186 189.388 89.0508C194.466 96.0526 198.392 105.203 199.205 113.728C201.345 136.202 201.863 158.86 202.239 181.456C202.371 189.47 205.384 194.111 212.374 197.152C227.555 203.757 243.572 206.817 259.735 204.292C277.825 201.468 287.806 187.113 297.46 173.168C298.551 171.589 299.377 169.783 300.093 167.991C302.842 161.102 308.418 153.658 307.319 147.41C306.33 141.797 298.245 137.154 292.814 132.654C276.615 119.232 264.795 102.523 254.428 84.4017C241.897 62.504 241.48 39.3979 246.314 15.7488C249.31 1.10124 256.989 -2.64406 271.196 1.69668C283.232 5.37604 290.515 13.9838 296.395 24.4303C314.852 57.2012 320.348 92.5032 315.93 129.369C314.706 139.584 318.464 143.347 327.412 145.42C349.187 150.465 369.01 148.753 385.634 131.657C390.916 126.226 397.456 122.02 405 118.585C404.407 120.095 404.252 122.148 403.154 123.034C393.367 130.949 383.932 139.468 373.383 146.237C357.66 156.325 340.276 153.347 323.639 148.82C315.871 146.708 312.971 148.182 310.317 155.551C307.168 164.288 303.263 173.088 297.979 180.674C276.801 211.071 248.214 217.884 211.976 202.021C209.085 200.754 206.204 199.461 201.968 197.577C200.963 202.767 200.533 207.182 199.244 211.327C191.63 235.822 181.051 259.267 153.728 265.699C140.684 268.767 125.766 265.187 111.94 263.041C105.708 262.074 101.997 262.326 97.8652 267.318C73.0533 297.277 30.838 296.823 7.07111 282.581C4.51372 281.048 2.30533 278.928 0 277.13Z" fill="#EAD31A"/>
</svg>
