<?xml version="1.0" encoding="UTF-8"?>
<svg width="218px" height="184px" viewBox="0 0 218 184" version="1.1" xmlns="http://www.w3.org/2000/svg" xmlns:xlink="http://www.w3.org/1999/xlink">
    <!-- Generator: Sketch 55.1 (78136) - https://sketchapp.com -->
    <title>Group 5</title>
    <desc>Created with Sketch.</desc>
    <g id="Page-1" stroke="none" stroke-width="1" fill="none" fill-rule="evenodd">
        <g id="Desktop-HD" transform="translate(-594.000000, -9820.000000)">
            <g id="Group-5" transform="translate(594.000000, 9820.000000)">
                <path d="M131.481039,49.2613578 C132.131659,50.0868257 132.783969,50.9139817 133.434589,51.7411376 C110.640915,95.4824954 78.3735349,127.998165 27.3192868,138.293725 C82.5256744,131.87567 114.436481,95.9652844 139.709271,49.6462385 C142.967442,56.7040734 145.867349,62.9786422 148.765566,69.253211 C149.787969,68.8210642 150.810372,68.3872294 151.832775,67.9533945 C148.476589,59.9401101 145.199829,51.8896881 141.654372,43.9574312 C141.225132,42.9986055 139.009643,41.8675963 138.188341,42.2018349 C130.120651,45.4885138 122.172946,49.0689174 114.189752,52.5632294 C114.66124,53.565945 115.129349,54.5686606 115.602527,55.568 C120.893674,53.4663486 126.186512,51.3630092 131.481039,49.2613578 L131.481039,49.2613578 Z M0,184 L218,184 L218,0 L0,0 L0,184 Z" id="Fill-1" fill="#FFFFFF"></path>
                <path d="M131.568743,49.1081645 C126.253529,51.2064986 120.940011,53.3065181 115.628189,55.4048521 C115.153162,54.4070901 114.683225,53.4059572 114.209894,52.4048243 C122.224281,48.9160279 130.20304,45.3412757 138.302253,42.0597846 C139.126764,41.7260736 141.350909,42.8552976 141.781827,43.8126098 C145.341137,51.7323462 148.6307,59.7700612 152,67.7706971 C150.973602,68.2038472 149.947204,68.6369973 148.920806,69.068462 C146.011265,62.8037971 143.100027,56.5391323 139.829126,49.4924378 C114.457587,95.7383722 82.4220955,131.592075 27,138 C78.2537324,127.720691 110.647191,95.2563452 133.529927,51.5840302 C132.876764,50.7581798 132.221906,49.9323295 131.568743,49.1081645" id="Fill-3" fill="#FFE50F"></path>
            </g>
        </g>
    </g>
</svg>